HIERARCHY
ROOT hips
{
  OFFSET 0 10.6860622 2.3727825e-15
  CHANNELS 6 Xposition Yposition Zposition Yrotation Xrotation Zrotation
  JOINT leftUpperLeg
  {
    OFFSET 0.6642549969 -0.9402397400000004 0
    CHANNELS 3 Yrotation Xrotation Zrotation
    JOINT leftLowerLeg
    {
      OFFSET 0 -3.997221335632195 0
      CHANNELS 3 Yrotation Xrotation Zrotation
      JOINT leftFoot
      {
        OFFSET -0.13777839790000004 -4.6145792000000005 -0.22186036399999998
        CHANNELS 3 Yrotation Xrotation Zrotation
        JOINT leftToes
        {
          OFFSET -0.03777410834999995 -0.9130806927000008 0.85230013
          CHANNELS 3 Yrotation Xrotation Zrotation
          End Site
          {
            OFFSET -0.03777410834999995 -0.9130806927000008 0.85230013
          }
        }
      }
    }
  }
  JOINT rightUpperLeg
  {
    OFFSET -0.6642778626 -0.9402397400000004 0
    CHANNELS 3 Yrotation Xrotation Zrotation
    JOINT rightLowerLeg
    {
      OFFSET 0 -3.997221452859387 0
      CHANNELS 3 Yrotation Xrotation Zrotation
      JOINT rightFoot
      {
        OFFSET 0.1377926176 -4.6145792000000005 -0.22185782299999995
        CHANNELS 3 Yrotation Xrotation Zrotation
        JOINT rightToes
        {
          OFFSET 0.037780746850000047 -0.9130806927000008 0.85230167
          CHANNELS 3 Yrotation Xrotation Zrotation
          End Site
          {
            OFFSET 0.037780746850000047 -0.9130806927000008 0.85230167
          }
        }
      }
    }
  }
  JOINT spine
  {
    OFFSET 0 0.13988381660000015 0
    CHANNELS 3 Yrotation Xrotation Zrotation
    JOINT chest
    {
      OFFSET 0 0.6191039003973773 0
      CHANNELS 3 Yrotation Xrotation Zrotation
      JOINT upperChest
      {
        OFFSET 0 0.9855186130586943 0
        CHANNELS 3 Yrotation Xrotation Zrotation
        JOINT leftShoulder
        {
          OFFSET 0.1807663869 1.5087829790000005 0
          CHANNELS 3 Yrotation Xrotation Zrotation
          JOINT leftUpperArm
          {
            OFFSET 0.5985063006419806 0 0
            CHANNELS 3 Yrotation Xrotation Zrotation
            JOINT leftLowerArm
            {
              OFFSET 2.2993332369501065 0 0
              CHANNELS 3 Yrotation Xrotation Zrotation
              JOINT leftHand
              {
                OFFSET 2.395047042602395 0 0
                CHANNELS 3 Yrotation Xrotation Zrotation
                JOINT leftIndexProximal
                {
                  OFFSET 0.5766295810000004 0.04556643899499946 0.17265095988184
                  CHANNELS 3 Yrotation Xrotation Zrotation
                  JOINT leftIndexIntermediate
                  {
                    OFFSET 0.2957229000000008 -0.019352197700001517 -0.007932640616999987
                    CHANNELS 3 Yrotation Xrotation Zrotation
                    JOINT leftIndexDistal
                    {
                      OFFSET 0.19008243099999922 -0.012484908149998475 -0.002786250786000012
                      CHANNELS 3 Yrotation Xrotation Zrotation
                      End Site
                      {
                        OFFSET 0.19008243099999922 -0.012484908149998475 -0.002786250786000012
                      }
                    }
                  }
                }
                JOINT leftMiddleProximal
                {
                  OFFSET 0.5834975091000001 0.0524350405149987 0.02204081888183999
                  CHANNELS 3 Yrotation Xrotation Zrotation
                  JOINT leftMiddleIntermediate
                  {
                    OFFSET 0.33880573540000003 -0.019871473270000717 -0.00000971183179999946
                    CHANNELS 3 Yrotation Xrotation Zrotation
                    JOINT leftMiddleDistal
                    {
                      OFFSET 0.20676022730000088 -0.012221336379999448 0.0001471936708000235
                      CHANNELS 3 Yrotation Xrotation Zrotation
                      End Site
                      {
                        OFFSET 0.20676022730000088 -0.012221336379999448 0.0001471936708000235
                      }
                    }
                  }
                }
                JOINT leftLittleProximal
                {
                  OFFSET 0.5344154683999995 -0.012880921405001189 -0.24414037221816004
                  CHANNELS 3 Yrotation Xrotation Zrotation
                  JOINT leftLittleIntermediate
                  {
                    OFFSET 0.21758961730000093 -0.011650919939999227 0.011893592810000034
                    CHANNELS 3 Yrotation Xrotation Zrotation
                    JOINT leftLittleDistal
                    {
                      OFFSET 0.1475273964999999 -0.008152365682999818 0.006001092492999946
                      CHANNELS 3 Yrotation Xrotation Zrotation
                      End Site
                      {
                        OFFSET 0.1475273964999999 -0.008152365682999818 0.006001092492999946
                      }
                    }
                  }
                }
                JOINT leftRingProximal
                {
                  OFFSET 0.5799399463000003 0.026911854694997794 -0.12150566991816003
                  CHANNELS 3 Yrotation Xrotation Zrotation
                  JOINT leftRingIntermediate
                  {
                    OFFSET 0.26167887460000006 -0.013480186499999602 0.010996293000000053
                    CHANNELS 3 Yrotation Xrotation Zrotation
                    JOINT leftRingDistal
                    {
                      OFFSET 0.17667108799999987 -0.008990287899999228 0.0055541023999999065
                      CHANNELS 3 Yrotation Xrotation Zrotation
                      End Site
                      {
                        OFFSET 0.17667108799999987 -0.008990287899999228 0.0055541023999999065
                      }
                    }
                  }
                }
                JOINT leftThumbProximal
                {
                  OFFSET 0.11018806699999972 -0.09448718900500053 0.17047963138184
                  CHANNELS 3 Yrotation Xrotation Zrotation
                  JOINT leftThumbIntermediate
                  {
                    OFFSET 0.31062601459999983 -0.08126270900000132 0.15443142000000007
                    CHANNELS 3 Yrotation Xrotation Zrotation
                    JOINT leftThumbDistal
                    {
                      OFFSET 0.21627175790000086 -0.08833193599999878 0.018771167799999988
                      CHANNELS 3 Yrotation Xrotation Zrotation
                      End Site
                      {
                        OFFSET 0.21627175790000086 -0.08833193599999878 0.018771167799999988
                      }
                    }
                  }
                }
              }
            }
          }
        }
        JOINT neck
        {
          OFFSET 0 1.5463305265074576 0
          CHANNELS 3 Yrotation Xrotation Zrotation
          JOINT head
          {
            OFFSET 0 0.8456443600000344 0
            CHANNELS 3 Yrotation Xrotation Zrotation
            JOINT leftEye
            {
              OFFSET 0.30408573140000006 0.5104519199999995 0.1276382305
              CHANNELS 3 Yrotation Xrotation Zrotation
              End Site
              {
                OFFSET 0.30408573140000006 0.5104519199999995 0.1276382305
              }
            }
            JOINT rightEye
            {
              OFFSET -0.30409491089999996 0.5104519199999995 0.1276379445
              CHANNELS 3 Yrotation Xrotation Zrotation
              End Site
              {
                OFFSET -0.30409491089999996 0.5104519199999995 0.1276379445
              }
            }
            JOINT jaw
            {
              OFFSET -3.155239131000001e-7 -0.11984121820000082 0.60178107
              CHANNELS 3 Yrotation Xrotation Zrotation
              End Site
              {
                OFFSET -3.155239131000001e-7 -0.11984121820000082 0.60178107
              }
            }
          }
        }
        JOINT rightShoulder
        {
          OFFSET -0.1807303465 1.5087829790000005 0
          CHANNELS 3 Yrotation Xrotation Zrotation
          JOINT rightUpperArm
          {
            OFFSET -0.5985063796536958 0 0
            CHANNELS 3 Yrotation Xrotation Zrotation
            JOINT rightLowerArm
            {
              OFFSET -2.2993322059002854 0 0
              CHANNELS 3 Yrotation Xrotation Zrotation
              JOINT rightHand
              {
                OFFSET -2.395045314457259 0 0
                CHANNELS 3 Yrotation Xrotation Zrotation
                JOINT rightIndexProximal
                {
                  OFFSET -0.5764487688300002 0.0441371204405987 0.17361932004999997
                  CHANNELS 3 Yrotation Xrotation Zrotation
                  JOINT rightIndexIntermediate
                  {
                    OFFSET -0.29573011380000047 -0.01934826376999843 -0.007698921482999974
                    CHANNELS 3 Yrotation Xrotation Zrotation
                    JOINT rightIndexDistal
                    {
                      OFFSET -0.19008373999999884 -0.012503266380000655 -0.0026365778999999897
                      CHANNELS 3 Yrotation Xrotation Zrotation
                      End Site
                      {
                        OFFSET -0.19008373999999884 -0.012503266380000655 -0.0026365778999999897
                      }
                    }
                  }
                }
                JOINT rightMiddleProximal
                {
                  OFFSET -0.5834852037300005 0.05211639405060153 0.02307162440000001
                  CHANNELS 3 Yrotation Xrotation Zrotation
                  JOINT rightMiddleIntermediate
                  {
                    OFFSET -0.33880114510000003 -0.019952774050000954 0.0002455003561999819
                    CHANNELS 3 Yrotation Xrotation Zrotation
                    JOINT rightMiddleDistal
                    {
                      OFFSET -0.20675694929999955 -0.012273788999999091 0.00030209124000002766
                      CHANNELS 3 Yrotation Xrotation Zrotation
                      End Site
                      {
                        OFFSET -0.20675694929999955 -0.012273788999999091 0.00030209124000002766
                      }
                    }
                  }
                }
                JOINT rightLittleProximal
                {
                  OFFSET -0.5346811737299992 -0.011214256288399227 -0.24363941305000003
                  CHANNELS 3 Yrotation Xrotation Zrotation
                  JOINT rightLittleIntermediate
                  {
                    OFFSET -0.21757715980000092 -0.011771559690000988 0.01201554387
                    CHANNELS 3 Yrotation Xrotation Zrotation
                    JOINT rightLittleDistal
                    {
                      OFFSET -0.1475201849000004 -0.00822055339600003 0.006082065407000015
                      CHANNELS 3 Yrotation Xrotation Zrotation
                      End Site
                      {
                        OFFSET -0.1475201849000004 -0.00822055339600003 0.006082065407000015
                      }
                    }
                  }
                }
                JOINT rightRingProximal
                {
                  OFFSET -0.5800810755299999 0.027657985680600072 -0.12066365025000003
                  CHANNELS 3 Yrotation Xrotation Zrotation
                  JOINT rightRingIntermediate
                  {
                    OFFSET -0.26166445029999974 -0.013623118409999302 0.011164098990000045
                    CHANNELS 3 Yrotation Xrotation Zrotation
                    JOINT rightRingDistal
                    {
                      OFFSET -0.17666387530000027 -0.009072900100000503 0.005668185599999959
                      CHANNELS 3 Yrotation Xrotation Zrotation
                      End Site
                      {
                        OFFSET -0.17666387530000027 -0.009072900100000503 0.005668185599999959
                      }
                    }
                  }
                }
                JOINT rightThumbProximal
                {
                  OFFSET -0.10997596379000074 -0.09577489355940072 0.16989765924999997
                  CHANNELS 3 Yrotation Xrotation Zrotation
                  JOINT rightThumbIntermediate
                  {
                    OFFSET -0.31036620999999986 -0.08229339117999834 0.15440884469999996
                    CHANNELS 3 Yrotation Xrotation Zrotation
                    JOINT rightThumbDistal
                    {
                      OFFSET -0.21631306399999906 -0.08825326400000111 0.018656797720000014
                      CHANNELS 3 Yrotation Xrotation Zrotation
                      End Site
                      {
                        OFFSET -0.21631306399999906 -0.08825326400000111 0.018656797720000014
                      }
                    }
                  }
                }
              }
            }
          }
        }
      }
    }
  }
}
MOTION
Frames: 8
Frame Time: 0.03333333333333333
-0.935976176985619 -7.834579477003727 6.32125931736618 180 84.50288596653387 180 179.43616361572455 -79.03329906176197 -128.01432171090178 -27.02209128893632 74.87939412358355 -17.598402567339303 -64.80436329043526 47.888265205769464 -14.945686927639235 0 0 0 -178.81379931746986 -78.7723848920596 127.10929772991099 27.01804090172934 74.88643927196141 17.554239511532277 64.98993359709868 48.12933245420323 14.777052908572205 0 0 0 -0.3232190103821508 -11.287145862418955 -0.03314949224012628 -1.6719137167230906 -0.04153552790413124 -0.7290445001516269 0 0 0 -26.75088489080801 -11.47071344411163 4.903081543734189 -20.091925499719295 1.3183047261520542 6.901276710993873 -39.46739298304381 5.608064830124113 37.62685510848901 -0.9096682209062454 -11.0042157941775 14.870509587534102 0 0 0 0 0 0 0 0 0 0 0 0 0 0 0 0 0 0 0 0 0 0 0 0 0 0 0 0 0 0 0 0 0 0 0 0 0 0 0 0 0 0 0 0 0 0 -34.69993134050563 0 0 -15.001696991480886 0 0 0 0 0 0 0 0 0 0 -7.707853723783153 2.5308616088269997 6.95927679729943 27.340066288263845 35.95240607030054 111.64464405799748 40.613073286287694 -4.218655150154274 -2.293479195923928 32.92089816794045 -53.98448489822017 -21.06817033289429 0 0 0 0 0 0 0 0 0 0 0 0 0 0 0 0 0 0 0 0 0 0 0 0 0 0 0 0 0 0 0 0 0 0 0 0 0 0 0 0 0 0 0 0 0
-0.935976176985619 -7.821801857751387 6.32125931736618 180 84.0016123771186 180 -179.44225900968482 -78.88854691826342 -129.6089746326048 -27.02209128893632 74.87939412358355 -17.598402567339303 -64.50516585787528 47.61684892054282 -15.282890119670377 0 0 0 -179.93875084793194 -78.64401737717719 128.721816130399 27.01804090172934 74.88643927196141 17.554239511532277 64.67916832399776 47.84446562922539 15.119753766159283 0 0 0 -0.32284080619647126 -10.986921006385035 -0.03489582352438969 -1.6724046602092695 -1.3633890637012012 -0.6905339362702758 0 0 0 -26.624797084995507 -11.314163982453385 4.501515432649943 -20.091925499719295 1.3183047261520542 6.901276710993873 -39.62413069048267 5.729148766482101 37.74465077145422 -0.8515739495663313 -10.840769268717235 14.58348096911138 0 0 0 0 0 0 0 0 0 0 0 0 0 0 0 0 0 0 0 0 0 0 0 0 0 0 0 0 0 0 0 0 0 0 0 0 0 0 0 0 0 0 0 0 0 0 -34.424719536996335 0 0 -15.001696991480886 0 0 0 0 0 0 0 0 0 0 -7.82907621361261 3.019525783723185 6.322244802709712 28.174060177529107 35.14743104128314 112.33574350945966 39.529125689631144 -3.4403427719079844 -2.312885658656734 34.10192296915942 -53.46829549943851 -22.2228402570268 0 0 0 0 0 0 0 0 0 0 0 0 0 0 0 0 0 0 0 0 0 0 0 0 0 0 0 0 0 0 0 0 0 0 0 0 0 0 0 0 0 0 0 0 0
-0.9359764453778902 -7.796246082462165 6.32125931736618 180 82.99926651738647 180 -177.30611199739363 -78.5817476630891 -132.69146466634012 -27.02209128893632 74.87939412358355 -17.598402567339303 -63.904478969515296 47.077717464777784 -15.958229035177231 0 0 0 177.905815717161 -78.36925593476593 131.85250626947783 27.01804090172934 74.88643927196141 17.554239511532277 64.05527392854336 47.27864785147065 15.80624837450301 0 0 0 -0.32211423350843854 -10.3865034296713 -0.038376360475379796 -1.6760550947994755 -4.004629600101861 -0.6134132794024433 0 0 0 -26.376221442311014 -10.99851975228597 3.700168858311148 -20.091925499719295 1.3183047261520542 6.901276710993873 -39.93693867621752 5.972265110563143 37.979311525357154 -0.7379897071037851 -10.513051814383328 14.010422343418528 0 0 0 0 0 0 0 0 0 0 0 0 0 0 0 0 0 0 0 0 0 0 0 0 0 0 0 0 0 0 0 0 0 0 0 0 0 0 0 0 0 0 0 0 0 0 -33.87434508459092 0 0 -15.001696991480886 0 0 0 0 0 0 0 0 0 0 -8.087923162001974 3.992317670924525 5.04450398110548 29.78196527263104 33.51484291028904 113.65484172681008 37.36444749280777 -1.8869883368612752 -2.3957228222450797 36.368118858119445 -52.395614930041454 -24.436120318538247 0 0 0 0 0 0 0 0 0 0 0 0 0 0 0 0 0 0 0 0 0 0 0 0 0 0 0 0 0 0 0 0 0 0 0 0 0 0 0 0 0 0 0 0 0
-0.9359764453778902 -7.783468194817554 6.32125931736618 180 82.49815326981377 180 -176.29131862352122 -78.42023592271156 -134.1795098463821 -27.02209128893632 74.87939412358355 -17.598402567339303 -63.60302514259848 46.81005784141747 -16.296322068075217 0 0 0 176.87587996228112 -78.22335916810508 133.37013426659925 27.01804090172934 74.88643927196141 17.554239511532277 63.74222074258054 46.99774155079653 16.150013844049184 0 0 0 -0.32176476316404856 -10.086315872994343 -0.04011084393337269 -1.6792180098090548 -5.323311483749263 -0.5747438408608765 0 0 0 -26.253743678356848 -10.83945143217321 3.300403513675647 -20.091925499719295 1.3183047261520542 6.901276710993873 -40.09300871316021 6.094291298033544 38.096165696045325 -0.6824977410921659 -10.348792114428546 13.724393089753711 0 0 0 0 0 0 0 0 0 0 0 0 0 0 0 0 0 0 0 0 0 0 0 0 0 0 0 0 0 0 0 0 0 0 0 0 0 0 0 0 0 0 0 0 0 0 -33.599177703284816 0 0 -15.001696991480886 0 0 0 0 0 0 0 0 0 0 -8.225535391821849 4.476226527952166 4.403747746295549 30.557098543792897 32.68822139407446 114.28405471369665 36.28351365272929 -1.1129175056025962 -2.4590062186606167 37.45427763263873 -51.840431881653465 -25.495708937540844 0 0 0 0 0 0 0 0 0 0 0 0 0 0 0 0 0 0 0 0 0 0 0 0 0 0 0 0 0 0 0 0 0 0 0 0 0 0 0 0 0 0 0 0 0
-0.9359764453778902 -7.757912419528332 6.32125931736618 180 81.49630942287861 180 -174.36676391984577 -78.08208356535948 -137.0505957631491 -27.02209128893632 74.87939412358355 -17.598402567339303 -62.99800270538287 46.27867487397832 -16.973274387498318 0 0 0 174.91171680015717 -77.91559209680798 136.30967649950856 27.01804090172934 74.88643927196141 17.554239511532277 63.1139632685674 46.44011353586568 16.838505986029183 0 0 0 -0.3210962410933836 -9.486009433701684 -0.04356936419754158 -1.688244069901169 -7.955083108965192 -0.49702657237797 0 0 0 -26.012436383815253 -10.518894999005353 2.502718657352343 -20.091925499719295 1.3183047261520542 6.901276710993873 -40.40449262905252 6.339277943415593 38.328951854461856 -0.5741146438963257 -10.019509490680313 13.15333633938724 0 0 0 0 0 0 0 0 0 0 0 0 0 0 0 0 0 0 0 0 0 0 0 0 0 0 0 0 0 0 0 0 0 0 0 0 0 0 0 0 0 0 0 0 0 0 -33.0488749618184 0 0 -15.001696991480886 0 0 0 0 0 0 0 0 0 0 -8.517085697158478 5.4385168425658845 3.118331763922019 32.0525338488419 31.016718892053046 115.48453244335825 34.123921992226364 0.42762349096422647 -2.6288742004510066 39.53560365519048 -50.69552310155872 -27.52366825778997 0 0 0 0 0 0 0 0 0 0 0 0 0 0 0 0 0 0 0 0 0 0 0 0 0 0 0 0 0 0 0 0 0 0 0 0 0 0 0 0 0 0 0 0 0
-0.9359764453778902 -7.745134531883721 6.32125931736618 180 80.99557747760007 -179.99999899999997 -173.45607541676023 -77.90598770285564 -138.43456020210627 -27.02209128893632 74.87939412358355 -17.598402567339303 -62.694502354321585 46.015005322641095 -17.31211656359073 0 0 0 173.97725889170042 -77.75419590483583 137.73180320460742 27.01804090172934 74.88643927196141 17.554239511532277 62.798836902036506 46.16343949021686 17.18320393556854 0 0 0 -0.32077502541439024 -9.18589733292744 -0.04529374965575255 -1.694119249548062 -9.267479092942759 -0.4579170250506624 0 0 0 -25.89361368588737 -10.35743123190337 2.10481221270281 -20.091925499719295 1.3183047261520542 6.901276710993873 -40.55989918746079 6.462231794275648 38.44487136424517 -0.5212239074770245 -9.854501102478118 12.86830857074252 0 0 0 0 0 0 0 0 0 0 0 0 0 0 0 0 0 0 0 0 0 0 0 0 0 0 0 0 0 0 0 0 0 0 0 0 0 0 0 0 0 0 0 0 0 0 -32.773767405223225 0 0 -15.001696991480886 0 0 0 0 0 0 0 0 0 0 -8.671005577417917 5.916679671184193 2.4736294465102286 32.77404714795067 30.172749798382483 116.05700926678412 33.04507608280723 1.1931484598546818 -2.735268488859978 40.532066724081254 -50.10700448310253 -28.49333118058288 0 0 0 0 0 0 0 0 0 0 0 0 0 0 0 0 0 0 0 0 0 0 0 0 0 0 0 0 0 0 0 0 0 0 0 0 0 0 0 0 0 0 0 0 0
-0.9359764453778902 -7.7195787565945 6.32125931736618 -179.9999942443245 79.99456575466634 -179.9999933318606 -171.73491672408636 -77.5407741375545 -141.10219695980484 -27.02209128893632 74.87939412358355 -17.598402567339303 -62.08558157876484 45.49185958826224 -17.99044511610708 0 0 0 172.2022430627883 -77.41744697033954 140.48198845825448 27.01804090172934 74.88643927196141 17.554239511532277 62.16664938951465 45.61452070962263 17.87338248606667 0 0 0 -0.3201627116868578 -8.585773509631167 -0.048731830040456676 -1.7086377784425872 -11.883614791528439 -0.37903292484722817 0 0 0 -25.65966257545554 -10.032204303268914 1.3109046191298297 -20.091925499719295 1.3183047261520542 6.901276710993873 -40.87005777292617 6.709046441699418 38.67577509956964 -0.41803964430975205 -9.523785011110675 12.299251261684397 0 0 0 0 0 0 0 0 0 0 0 0 0 0 0 0 0 0 0 0 0 0 0 0 0 0 0 0 0 0 0 0 0 0 0 0 0 0 0 0 0 0 0 0 0 0 -32.22361113585141 0 0 -15.001696991480886 0 0 0 0 0 0 0 0 0 0 -8.99507607627003 6.866500841942455 1.1801359945125431 34.167309449926066 28.470617721430568 117.14895433475229 30.888845024039853 2.712395980432485 -2.9904394344996135 42.44005490153962 -48.90074392396871 -30.347511622028495 0 0 0 0 0 0 0 0 0 0 0 0 0 0 0 0 0 0 0 0 0 0 0 0 0 0 0 0 0 0 0 0 0 0 0 0 0 0 0 0 0 0 0 0 0
-0.9359764453778902 -7.706800868949889 6.32125931736618 -179.99999451551528 79.49434263912418 -179.99999360745187 -170.92305151003677 -77.35210121614539 -142.38720006429193 -27.02209128893632 74.87939412358355 -17.598402567339303 -61.780259190460306 45.232425793902856 -18.329923253084182 0 0 0 171.36084775356684 -77.24253148515577 141.8108510556045 27.01804090172934 74.88643927196141 17.554239511532277 61.84967750960077 45.342331905545855 18.218856387549152 0 0 0 -0.3198705162972868 -8.285773661318157 -0.0504457615758749 -1.7173045390266812 -13.186694072564368 -0.3391931265111955 0 0 0 -25.54454250775263 -9.868470333626972 0.9149143067406529 -20.091925499719295 1.3183047261520542 6.901276710993873 -41.02478754929823 6.832899806388999 38.79074195760189 -0.3677464697547642 -9.358090819717816 12.015220616791211 0 0 0 0 0 0 0 0 0 0 0 0 0 0 0 0 0 0 0 0 0 0 0 0 0 0 0 0 0 0 0 0 0 0 0 0 0 0 0 0 0 0 0 0 0 0 -31.948573609413007 0 0 -15.001696991480886 0 0 0 0 0 0 0 0 0 0 -9.165195327515127 7.337943031683571 0.5313069792455554 34.840165172126504 27.61327787265353 117.66954142159405 29.811299294146952 3.465215873505669 -3.1389797742903567 43.353053692212065 -48.284108233147265 -31.233487902878636 0 0 0 0 0 0 0 0 0 0 0 0 0 0 0 0 0 0 0 0 0 0 0 0 0 0 0 0 0 0 0 0 0 0 0 0 0 0 0 0 0 0 0 0 0
